<?xml version="1.0" standalone="no"?>
<!DOCTYPE svg PUBLIC "-//W3C//DTD SVG 20010904//EN"
 "http://www.w3.org/TR/2001/REC-SVG-20010904/DTD/svg10.dtd">
<svg version="1.0" xmlns="http://www.w3.org/2000/svg"
 width="700.000000pt" height="700.000000pt" viewBox="0 0 700.000000 700.000000"
 preserveAspectRatio="xMidYMid meet">
<metadata>
Created by potrace 1.14, written by Peter Selinger 2001-2017
</metadata>
<g transform="translate(0.000000,700.000000) scale(0.100000,-0.100000)"
fill="#000000" stroke="none">
<path d="M4775 5808 c-124 -22 -302 -91 -457 -176 -90 -49 -97 -54 -183 -111
-261 -175 -426 -343 -665 -681 -41 -58 -80 -112 -87 -120 -181 -231 -281 -321
-444 -398 -61 -29 -219 -73 -313 -87 -123 -18 -408 -21 -761 -9 -572 20 -777
6 -928 -66 -171 -81 -199 -285 -86 -623 43 -128 239 -606 309 -752 5 -11 48
-119 95 -240 202 -516 278 -689 377 -854 149 -249 325 -417 541 -515 406 -185
935 -155 1313 74 225 136 465 383 682 700 124 182 365 571 445 720 16 30 41
75 55 100 113 198 285 584 365 820 59 173 142 469 161 570 2 14 11 54 20 90 8
36 18 81 21 100 3 19 8 42 10 50 2 8 7 35 10 60 4 24 8 47 10 50 1 3 6 28 9
55 4 28 11 75 16 105 5 30 12 84 16 120 3 36 9 92 14 125 9 70 6 446 -4 490
-4 17 -12 50 -17 75 -23 109 -82 218 -142 264 -67 52 -125 69 -232 71 -55 2
-122 -1 -150 -7z"/>
</g>
</svg>
