<svg xmlns="http://www.w3.org/2000/svg" height="768" width="1024"><g style="font-style:normal;font-weight:400;font-size:72px;line-height:1;font-family:Teko;font-variant-ligatures:none;text-align:center;text-anchor:middle" fill="#fcfcfc"><path style="font-style:normal;font-weight:400;font-size:72px;line-height:1;font-family:Teko;font-variant-ligatures:none;text-align:center;text-anchor:middle" d="M395.158-45.072h14.76q6.696 0 6.696 6.336v14.976q0 6.336-6.696 6.336h-8.28V0h-6.48zm14.976 20.304v-12.96q0-1.296-.432-1.656-.432-.432-1.728-.432h-6.336v17.208h6.336q1.296 0 1.728-.432.432-.432.432-1.728z" transform="translate(-68.85 406.536)"/><path style="font-style:normal;font-weight:400;font-size:72px;line-height:1;font-family:Teko;font-variant-ligatures:none;text-align:center;text-anchor:middle" d="M428.92-5.256h11.16V0h-17.64v-45.072h6.48z" transform="translate(-53.85 406.536)"/><path style="font-style:normal;font-weight:400;font-size:72px;line-height:1;font-family:Teko;font-variant-ligatures:none;text-align:center;text-anchor:middle" d="m460.656 0-1.8-10.44h-9.504L447.696 0h-6.48l7.992-45.072h9.432L467.208 0Zm-10.512-15.696h7.848l-4.104-23.76z" transform="translate(-38.85 406.536)"/><path style="font-style:normal;font-weight:400;font-size:72px;line-height:1;font-family:Teko;font-variant-ligatures:none;text-align:center;text-anchor:middle" d="M484.543 0h-6.552v-14.256l-9.648-30.816h6.624l6.264 24.84 5.904-24.84h6.624l-9.216 30.816z" transform="translate(-23.85 406.536)"/><path style="font-style:normal;font-weight:400;font-size:72px;line-height:1;font-family:Teko;font-variant-ligatures:none;text-align:center;text-anchor:middle" d="M504.294-5.256h11.16V0h-17.64v-45.072h6.48z" transform="translate(-8.85 406.536)"/><path style="font-style:normal;font-weight:400;font-size:72px;line-height:1;font-family:Teko;font-variant-ligatures:none;text-align:center;text-anchor:middle" d="M520.047-45.072h6.48V0h-6.48z" transform="translate(6.15 406.536)"/><path style="font-style:normal;font-weight:400;font-size:72px;line-height:1;font-family:Teko;font-variant-ligatures:none;text-align:center;text-anchor:middle" d="M547.618-7.344V-18.36q0-1.296-.432-1.656-.36-.432-1.656-.432h-5.328q-6.552 0-6.552-6.408v-11.88q0-6.336 6.696-6.336h7.056q6.696 0 6.696 6.336v6.624h-6.552v-5.616q0-1.296-.432-1.656-.432-.432-1.728-.432h-3.024q-1.296 0-1.728.432-.432.36-.432 1.656v10.008q0 1.296.432 1.728.432.36 1.728.36h5.256q6.624 0 6.624 6.336v12.96q0 6.336-6.768 6.336h-6.984q-6.696 0-6.696-6.336v-6.624h6.552v5.616q0 1.296.432 1.728.432.36 1.728.36h3.024q1.296 0 1.656-.36.432-.432.432-1.728z" transform="translate(21.15 406.536)"/><path style="font-style:normal;font-weight:400;font-size:72px;line-height:1;font-family:Teko;font-variant-ligatures:none;text-align:center;text-anchor:middle" d="M578.89-45.072v5.256h-7.56V0h-6.48v-39.816h-7.56v-5.256z" transform="translate(36.15 406.536)"/><path style="font-style:normal;font-weight:400;font-size:72px;line-height:1;font-family:Teko;font-variant-ligatures:none;text-align:center;text-anchor:middle" d="M589.585-5.256h13.032V0h-19.584v-45.072h19.08v5.256h-12.528v13.896h10.368v5.256h-10.368z" transform="translate(51.15 406.536)"/><path style="font-style:normal;font-weight:400;font-size:72px;line-height:1;font-family:Teko;font-variant-ligatures:none;text-align:center;text-anchor:middle" d="M614.263-18.216V0h-6.48v-45.072h14.76q6.696 0 6.696 6.336v14.112q0 5.472-4.824 6.264L631.543 0h-6.984l-6.768-18.216zm0-21.6V-23.4h6.336q1.296 0 1.728-.36.432-.432.432-1.728v-12.24q0-1.296-.432-1.656-.432-.432-1.728-.432z" transform="translate(66.15 406.536)"/></g></svg>